<svg xmlns="http://www.w3.org/2000/svg" viewBox="0 0 64 64" role="img" aria-label="dChat">
  <defs>
    <linearGradient id="mark" x1="10" y1="8" x2="54" y2="58" gradientUnits="userSpaceOnUse">
      <stop offset="0" stop-color="#087f8c" />
      <stop offset="1" stop-color="#172c3a" />
    </linearGradient>
  </defs>
  <rect width="64" height="64" rx="14" fill="url(#mark)" />
  <path
    d="M43 14v36h-7v-3.4c-2 2.6-4.8 4-8.2 4-7.1 0-12.8-5.7-12.8-13.2 0-7.6 5.7-13.2 12.8-13.2 3.1 0 5.7 1.1 7.6 3.4V14h7.6ZM29.2 44c3.9 0 6.8-2.8 6.8-6.7 0-4-2.9-6.8-6.8-6.8s-6.8 2.8-6.8 6.8c0 3.9 2.9 6.7 6.8 6.7Z"
    fill="#ffffff"
  />
  <circle cx="49" cy="15" r="4" fill="#d59a2b" />
</svg>
